<?xml version="1.0" encoding="iso-8859-1"?>
<!-- Generator: Adobe Illustrator 24.0.3, SVG Export Plug-In . SVG Version: 6.00 Build 0)  -->
<svg version="1.1" id="&#x5716;&#x5C64;_1" xmlns="http://www.w3.org/2000/svg" xmlns:xlink="http://www.w3.org/1999/xlink" x="0px"
	 y="0px" viewBox="0 0 847.47 1470" enable-background="new 0 0 847.47 1470" xml:space="preserve">
<path d="M603.83,619.96c27.6-24.29,57.92-43.28,94.89-50.18c57.07-10.66,98.59-42.52,125.13-93.98c19.1-37.05,25.86-76.67,23-117.95
	c-1.1-15.82-3.83-31.52-6.01-48.74c-7.14,6.33-7.75,13.01-8.19,19.83c-1.33,20.56-1.66,41.26-4.36,61.64
	c-5.32,40.1-24.18,72.75-57.63,96.21c-5.94,4.17-12.82,6.99-20.42,11.05c0.57-2.33,0.58-2.8,0.79-3.14
	c34.31-55,47.34-114.68,38.81-178.89c-4.22-31.75-16.53-60.63-33.76-87.46c-3.91-6.09-5.85-12.21-5.66-19.71
	c0.85-33.36-3.08-66.08-15.64-97.32c-6.3-15.68-14.28-30.4-26.72-42.17c-3.03-2.86-6.86-4.88-10.32-7.28
	c0.26,3.26,1.52,5.13,2.7,7.06c14.58,23.82,22.34,49.55,20.48,77.6c-0.47,7.08-2.48,14.29-5.09,20.92
	c-2.49,6.33-6.56,7.3-11.79,3.04c-7.35-5.98-14.96-12.06-20.74-19.44c-12.69-16.22-25.08-32.79-36.16-50.13
	c-19.03-29.78-36.96-60.28-55.4-90.44c-2.17-3.56-4.71-6.89-7.08-10.33c3.35,16.21,7.78,31.86,12.7,47.35
	c19.95,62.92,48.98,120.62,94.07,169.89c13.92,15.21,24.72,33.53,35.36,51.37c6.28,10.52,9.84,22.77,13.79,34.52
	c1.37,4.06,0.22,8.97,0.22,12.37c-18.8-7.44-36.85-15.28-55.39-21.74c-23.59-8.21-44.33-20.34-61.39-38.78
	c-5.98-6.47-12.78-12.21-19.42-18.03c-2.38-2.09-5.43-3.42-9.03-5.62c0.32,2.1,0.26,2.8,0.53,3.32c1.7,3.2,3.34,6.44,5.25,9.51
	c13.01,20.87,28.23,39.98,45.65,57.34c15.39,15.34,32.29,28.41,53.24,35.53c4.66,1.58,9.05,4.2,13.23,6.87
	c22.78,14.52,31.38,37.47,24.2,63.5c-5.02,18.19-13.85,34.48-25,49.48c-31.71,42.69-71.5,76.46-117.56,102.5
	c-28.57,16.15-59.93,22.59-92.55,15.85c-17.69-3.66-35.14-3.95-51.63,1.93c-19.05,6.79-36.78,6.6-55.8,0.28
	c-13.87-4.61-28.83-6.75-43.63-3.36c-37.35,8.56-72.24,1.37-104.61-17.66c-38.38-22.56-72.17-50.97-100.94-85.07
	c-15.15-17.96-27.81-37.46-35.1-60.09c-3.25-10.08-4.98-20.28-2.81-30.78c4.82-23.29,21.14-35.63,41.58-44.85
	c12.06-5.44,24.2-11.7,34.51-19.86c26.75-21.17,47.67-47.67,65.05-76.97c1.13-1.91,1.89-4.03,2.83-6.06
	c-0.51-0.35-1.02-0.71-1.54-1.06c-3.64,2.61-7.53,4.92-10.85,7.88c-6.26,5.57-12.43,11.29-18.21,17.35
	c-15.31,16.07-33.29,27.83-54.4,34.82c-5.16,1.71-10.25,3.62-15.29,5.65c-14.97,6.05-29.91,12.21-45.17,18.45
	c-2.15-9.37,0.94-18.38,4.45-27.16c11.31-28.34,28.04-53.4,48.41-75.85c33.51-36.93,58.74-78.83,76.13-125.34
	c10.68-28.56,19.74-57.72,29.53-86.61c-0.81-0.35-1.62-0.7-2.43-1.06c-3.17,4.84-6.46,9.6-9.49,14.53
	c-19.95,32.43-39.06,65.41-60.05,97.14c-12.31,18.6-27.28,35.5-41.76,52.56c-3.45,4.06-10.22,8.53-14.63,7.8
	c-7.05-1.18-7.99-9.66-9.02-16.06c-5.04-31.5,3.25-60.15,19.3-87.02c1.19-1.99,2.41-3.97,3.62-5.96c-0.42-0.43-0.84-0.86-1.26-1.3
	c-3.66,2.78-8.12,4.95-10.83,8.47c-7.16,9.28-14.7,18.55-20.06,28.88c-16.35,31.49-21.72,65.74-21.35,100.76
	c0.14,13.54-3.01,24.83-10.13,36.23c-24.42,39.08-33.99,82.05-31.69,127.93c2.4,47.62,16.51,91.47,41.83,132.88
	c-12.25-3.75-22.1-10.32-31.14-18.18c-29.61-25.74-44.56-58.94-48.28-97.41c-1.7-17.57-1.95-35.28-2.99-52.92
	c-0.39-6.69-0.77-13.52-8.21-18.62c-2.05,16.16-4.68,31.36-5.79,46.66c-4.78,65.66,14.33,123.13,60.62,170.59
	c7.64,7.84,16.96,14.38,26.39,20.07c20.39,12.29,43.07,19.15,66.17,23.98c36.38,7.61,65.7,27.38,92.58,51.7
	c3.23,2.92,5.68,6.7,8.49,10.08c-0.37,0.48-0.73,0.95-1.1,1.43c-2.74-1.32-5.49-2.6-8.21-3.96c-8.49-4.28-16.82-8.93-25.49-12.82
	c-17.07-7.65-34.61-10.25-52.91-4.11c-3.99,1.34-8.65,2.18-12.71,1.51c-12.67-2.07-25.47-4.11-37.74-7.76
	c-14.51-4.32-28.44-10.56-42.79-15.45c-5.05-1.72-10.59-2.26-15.96-2.72c-5.4-0.46-7.62,2.81-6.16,7.76
	c1.59,5.4,3.46,10.82,6.01,15.82c10.36,20.33,24.24,38.16,39.2,55.32c23.19,26.62,52.25,40.48,87.3,42.5
	c19.22,1.11,38.44,2.41,57.65,3.72c9.03,0.62,15.69,5.31,20.73,12.59c7.95,11.48,12.26,24,12.32,38.16
	c0.06,12.19-0.96,24.96,2.28,36.4c3.2,11.3,2.6,21.34-0.67,31.76c-8.39,26.8-17.38,53.41-25.56,80.28
	c-6.02,19.79-11.2,40.1-8.5,60.86c1.54,11.89-1.64,21.74-6.01,32.02c-8.06,18.96-16.91,37.67-23.54,57.13
	c-6.79,19.9-10.73,39.67-11.96,59c0,0-10.4,33.79-0.4,80.79c0,0,1.44-12.94,5.98-19.57c0.05,0.18,0.09,0.37,0.14,0.55l-0.12,0.02
	c-5.66,32.44,3.76,75.52,18,122l9-27c2.96,29.53,14.83,57.61,37,84v-33c20.35,43.22,49.8,74.7,84,98c-8.78-12.47-6.42-38.37,0-64
	c3.83,28.4,32.24,65.69,69,106c12.65-48.26,28.64-89.24,53-112c0.4,14.92,4.57,28.12,16,38c12.5-35.58,25.69-52.85,39-67l5,20
	c0,0,59-24,66-77l6,26c6.06-0.79,46.47-56.41,33.87-121.18l7.13,12.18c0,0,13.66-49.16-6.67-93.58l-0.01,0
	c-2.32-11.92-5.63-23.91-9.95-35.97c-7.09-19.8-16.37-38.8-24.26-58.33c-2.33-5.78-5.36-12.38-4.57-18.11
	c2.84-20.51,0.26-40.4-5.39-59.84c-7.71-26.52-16.67-52.67-24.94-79.03c-4.73-15.08-8.85-29.65-3.18-46.22
	c3.5-10.23,1.62-22.41,1.61-33.72c-0.01-13.42,4.13-25.38,11.43-36.39c5.26-7.93,12.19-13.28,22.15-13.9
	c20.12-1.24,40.27-2.22,60.36-3.98c24.84-2.18,48.04-9.05,67.26-26.05c23.18-20.51,41.89-44.52,56.25-71.89
	c2.3-4.38,4.13-9.11,5.46-13.88c1.95-6.97-0.07-9.91-7.13-9.14c-7.34,0.79-14.71,2.57-21.73,4.93
	c-16.52,5.54-32.7,12.12-49.29,17.46c-14.03,4.52-28.29,4.94-42.84,0.71c-6.76-1.97-14.36-2.05-21.48-1.57
	c-16.22,1.1-30.34,8.59-44.35,16.14c-4.87,2.63-9.82,5.12-14.74,7.68c-0.47-0.57-0.93-1.15-1.4-1.72
	C596.15,628.37,599.58,623.7,603.83,619.96z"/>
</svg>
